<svg xmlns="http://www.w3.org/2000/svg" width="1280" height="800" viewBox="0 0 1280 800">
  <rect width="1280" height="800" fill="#ffffff" stroke="#111827" stroke-width="2"/>
  <rect x="40" y="32" width="220" height="48" rx="8" fill="#f3f4f6" stroke="#6b7280"/>
  <text x="64" y="62" font-size="24" fill="#111827">Logo</text>
  <rect x="900" y="36" width="120" height="36" rx="18" fill="#e5e7eb" stroke="#6b7280"/>
  <rect x="1040" y="36" width="180" height="36" rx="18" fill="#111827"/>
  <text x="1088" y="60" font-size="18" fill="#ffffff">CTA</text>
  <rect x="60" y="120" width="560" height="280" rx="24" fill="#f9fafb" stroke="#9ca3af" stroke-dasharray="10 8"/>
  <text x="100" y="190" font-size="44" fill="#111827">主标题</text>
  <text x="100" y="248" font-size="24" fill="#4b5563">副标题 / 一句价值说明</text>
  <rect x="100" y="292" width="180" height="48" rx="24" fill="#111827"/>
  <text x="150" y="323" font-size="20" fill="#ffffff">主按钮</text>
  <rect x="300" y="292" width="180" height="48" rx="24" fill="#ffffff" stroke="#111827" stroke-width="2"/>
  <text x="350" y="323" font-size="20" fill="#111827">次按钮</text>
  <rect x="700" y="120" width="520" height="280" rx="24" fill="#eef2ff" stroke="#6366f1"/>
  <text x="900" y="270" font-size="28" fill="#4338ca">右侧主视觉/插图</text>
  <rect x="80" y="470" width="340" height="220" rx="20" fill="#f9fafb" stroke="#9ca3af"/>
  <rect x="470" y="470" width="340" height="220" rx="20" fill="#f9fafb" stroke="#9ca3af"/>
  <rect x="860" y="470" width="340" height="220" rx="20" fill="#f9fafb" stroke="#9ca3af"/>
  <text x="180" y="580" font-size="28" fill="#111827">功能卡片 A</text>
  <text x="570" y="580" font-size="28" fill="#111827">功能卡片 B</text>
  <text x="960" y="580" font-size="28" fill="#111827">功能卡片 C</text>
</svg>
